<svg height="456pt" viewBox="0 -26 456.228 456" width="456pt" xmlns="http://www.w3.org/2000/svg"><path d="m308.226562 336.019531h18.09375v-33.945312c0-3.3125 2.6875-6 6-6h40.125c3.316407 0 6 2.6875 6 6v33.945312h18.09375v-143.679687h-88.3125zm14.363282-128.78125h59.609375c3.316406 0 6 2.6875 6 6 0 3.316407-2.683594 6-6 6h-59.609375c-3.3125 0-6-2.683593-6-6 0-3.3125 2.6875-6 6-6zm0 27.421875h59.609375c3.316406 0 6 2.6875 6 6 0 3.316406-2.683594 6-6 6h-59.609375c-3.3125 0-6-2.683594-6-6 0-3.3125 2.6875-6 6-6zm0 27.421875h59.609375c3.316406 0 6 2.6875 6 6 0 3.316407-2.683594 6-6 6h-59.609375c-3.3125 0-6-2.683593-6-6 0-3.3125 2.6875-6 6-6zm0 0"/><path d="m296.226562 342.019531v-155.679687c0-3.3125 2.6875-6 6-6h11.554688v-14.199219c0-3.3125 2.6875-6 6-6h27.59375v-128.484375c-.003906-11.933594 4.90625-23.339844 13.570312-31.542969h-261.390624c-20.207032.066407-36.628907 16.324219-36.898438 36.53125l-2.179688 266.621094h172.394532c3.3125 0 6 2.6875 6 6v39.871094c0 30.640625 24.328125 55.570312 54.234375 55.570312 28.167969 0 51.875-22.429687 54.097656-51.101562v-5.585938h-44.976563c-3.3125 0-5.996093-2.683593-6-6zm-43.058593-253.597656h37.402343c3.3125 0 6 2.683594 6 6 0 3.3125-2.6875 6-6 6h-37.402343c-3.3125 0-6-2.6875-6-6 0-3.316406 2.6875-6 6-6zm-116.976563 0h94.691406c3.316407 0 6 2.683594 6 6 0 3.3125-2.683593 6-6 6h-94.691406c-3.3125 0-6-2.6875-6-6 0-3.316406 2.6875-6 6-6zm60.363282 76.644531c0 3.3125-2.683594 6-6 6h-53.375c-3.3125 0-6-2.6875-6-6s2.6875-6 6-6h53.375c3.316406 0 6 2.683594 6 6zm-95.441407-76.644531h13.136719c3.3125 0 6 2.683594 6 6 0 3.3125-2.6875 6-6 6h-13.136719c-3.3125 0-6-2.6875-6-6 0-3.316406 2.6875-6 6-6zm0 70.644531h10.277344c3.3125 0 6 2.683594 6 6 0 3.3125-2.6875 6-6 6h-10.277344c-3.3125 0-6-2.6875-6-6 0-3.316406 2.6875-6 6-6zm105.261719 82.648438h-105.261719c-3.3125 0-6-2.6875-6-6 0-3.316406 2.6875-6 6-6h105.261719c3.316406 0 6 2.683594 6 6 0 3.3125-2.683594 6-6 6zm84.199219-70.648438h-77.644531c-3.3125 0-6-2.683594-6-6 0-3.3125 2.6875-6 6-6h77.644531c3.3125 0 6 2.6875 6 6 0 3.316406-2.6875 6-6 6zm0 0"/><path d="m338.320312 308.074219h7.480469v27.945312h-7.480469zm0 0"/><path d="m357.800781 308.074219h8.644531v27.945312h-8.644531zm0 0"/><path d="m325.78125 172.144531h53.203125v8.195313h-53.203125zm0 0"/><path d="m424.945312 196.816406h20.109376v7.925782h-20.109376zm0 0"/><path d="m226.871094 349.140625v-33.871094h-226.871094v33.871094c0 30.640625 24.328125 55.570313 54.234375 55.570313h201.257813c-18.003907-12.769532-28.679688-33.496094-28.621094-55.570313zm0 0"/><path d="m408.539062 336.019531h47.6875v-119.277343h-47.6875zm10.621094-98.972656h25.632813c3.316406 0 6 2.683594 6 6 0 3.3125-2.683594 6-6 6h-25.632813c-3.3125 0-6-2.6875-6-6 0-3.316406 2.6875-6 6-6zm0 24.441406h25.632813c3.316406 0 6 2.683594 6 6 0 3.3125-2.683594 6-6 6h-25.632813c-3.3125 0-6-2.6875-6-6 0-3.316406 2.6875-6 6-6zm0 22.652344h25.632813c3.316406 0 6 2.6875 6 6s-2.683594 6-6 6h-25.632813c-3.3125 0-6-2.6875-6-6s2.6875-6 6-6zm0 24.4375h25.632813c3.316406 0 6 2.6875 6 6 0 3.316406-2.683594 6-6 6h-25.632813c-3.3125 0-6-2.683594-6-6 0-3.3125 2.6875-6 6-6zm0 0"/><path d="m422.453125 31.65625c-.097656-17.347656-14.1875-31.363281-31.539063-31.363281-17.347656 0-31.441406 14.015625-31.539062 31.363281v53.589844h63.078125zm0 0"/></svg>