<svg viewBox="0 -16 512 512" xmlns="http://www.w3.org/2000/svg"><path d="m356.804688 450-10-30h-181.609376l-10 30h-49.195312c-8.289062 0-15 6.710938-15 15s6.710938 15 15 15h300c8.289062 0 15-6.710938 15-15s-6.710938-15-15-15zm0 0"/><path d="m91 150h60v30h-60zm0 0"/><path d="m91 90h60v30h-60zm0 0"/><path d="m91 210h60v30h-60zm0 0"/><path d="m406 120c-8.277344 0-15 6.722656-15 15s6.722656 15 15 15 15-6.722656 15-15-6.722656-15-15-15zm0 0"/><path d="m512 45c0-24.8125-20.1875-45-45-45h-422c-24.8125 0-45 20.1875-45 45v255h512zm-166 15c8.285156 0 15 6.714844 15 15s-6.714844 15-15 15-15-6.714844-15-15 6.714844-15 15-15zm-60 0c8.285156 0 15 6.714844 15 15s-6.714844 15-15 15-15-6.714844-15-15 6.714844-15 15-15zm-105 195c0 8.289062-6.710938 15-15 15h-90c-8.289062 0-15-6.710938-15-15v-180c0-8.289062 6.710938-15 15-15h90c8.289062 0 15 6.710938 15 15zm45-195c8.285156 0 15 6.714844 15 15s-6.714844 15-15 15-15-6.714844-15-15 6.714844-15 15-15zm190.605469 205.605469c-5.859375 5.859375-15.351563 5.859375-21.210938 0l-19.394531-19.394531-19.394531 19.394531c-3.179688 3.195312-7.472657 4.777343-12.085938 4.320312-4.46875-.4375-8.511719-2.871093-11-6.605469l-47.519531-71.28125-47.519531 71.28125c-4.519531 6.792969-13.785157 8.808594-20.800781 4.160157-6.898438-4.601563-8.761719-13.902344-4.160157-20.800781l60-90c5.566407-8.351563 19.394531-8.351563 24.960938 0l49.847656 74.78125 17.066406-17.066407c5.859375-5.859375 15.351563-5.859375 21.210938 0l30 30c5.859375 5.859375 5.859375 15.351563 0 21.210938zm-10.605469-85.605469c-24.8125 0-45-20.1875-45-45s20.1875-45 45-45 45 20.1875 45 45-20.1875 45-45 45zm0 0"/><path d="m45 390h422c24.8125 0 45-20.1875 45-45v-15h-512v15c0 24.8125 20.1875 45 45 45zm0 0"/></svg>